<svg width="781" height="2081" viewBox="0 0 781 2081" fill="none" xmlns="http://www.w3.org/2000/svg">
<path d="M10 14.6412C10.1321 14.6412 23.2815 14.6412 77.3607 13.1632C118.365 12.0425 186.877 8.72912 237.492 10.519C288.107 12.3089 318.743 18.9344 365.442 31.6016C412.14 44.2688 473.972 62.7769 509.69 74.359C553.422 88.5396 568.173 96.1377 584.378 101.424C604.828 108.095 627.725 123.313 647.721 138.23C666.894 152.532 677.491 176.744 685.103 197.319C690.116 210.87 688.758 236.052 681.906 264.706C675.241 292.577 656.641 312.664 644.113 327.88C631.853 342.768 617.173 351.312 600.121 358.939C576.738 369.396 558.655 370.724 550.15 373.316C544.921 374.91 537.722 376.315 503.524 382.065C469.326 387.816 408.318 397.677 368.05 406.733C327.783 415.79 310.106 423.742 293.383 432.927C260.938 450.747 238.384 469.641 223.475 486.615C205.967 506.549 199.742 525.605 197.826 536.101C189.54 581.511 195.856 609.988 201.203 626.532C209.511 652.238 230.143 672.008 244.745 683.895C248.735 687.142 253.825 689.295 276.007 696.463C298.188 703.632 337.529 715.195 359.281 721.362C393.841 731.16 419.091 744.739 444.895 750.668C460.925 754.35 475.243 757.638 501.9 765.273C523.72 771.522 562.653 780.785 596.478 791.066C630.302 801.348 657.909 811.903 677.88 820.913C709.813 835.318 726.415 848.636 736.059 856.852C751.93 870.373 762.205 888.279 768.062 902.559C769.031 905.731 769.661 908.374 770.1 912.293C770.538 916.213 770.766 921.328 771 924.999" stroke="url(#paint0_radial_625_610)" stroke-width="20" stroke-linecap="round"/>
<path d="M780.999 919.108C781.06 913.585 776.632 909.06 771.109 908.999C765.587 908.939 761.061 913.367 761.001 918.89L771 918.999L780.999 919.108ZM759.55 1015.02L769.125 1017.91L759.55 1015.02ZM717.498 1088.2L725.254 1094.51L717.498 1088.2ZM681.442 1121.51L674.669 1114.15L681.442 1121.51ZM626.609 1168.94L633.044 1176.59L626.609 1168.94ZM555.713 1199.98L558.609 1209.55L555.713 1199.98ZM513.891 1207.58L512.47 1197.68L513.891 1207.58ZM441.702 1226.56L445.089 1235.97L441.702 1226.56ZM378.698 1252.94L382.925 1262.01L378.698 1252.94ZM336.766 1282.35L330.046 1274.94L336.766 1282.35ZM285.507 1342.89L277.25 1337.24L285.507 1342.89ZM269.754 1403.44L259.809 1402.4L269.754 1403.44ZM271.595 1442.94L261.845 1445.16L271.595 1442.94ZM316.333 1506.35L309.091 1513.25L316.333 1506.35ZM530.793 2072.06C531.378 2077.55 536.305 2081.53 541.797 2080.94L631.289 2071.4C636.781 2070.81 640.758 2065.89 640.173 2060.4C639.587 2054.9 634.661 2050.93 629.169 2051.51L549.62 2059.99L541.138 1980.45C540.552 1974.95 535.626 1970.98 530.134 1971.56C524.642 1972.15 520.665 1977.07 521.251 1982.57L530.793 2072.06ZM771 918.999L761.001 918.89C760.783 938.863 758.632 983.401 749.975 1012.14L759.55 1015.02L769.125 1017.91C778.675 986.205 780.781 939.145 780.999 919.108L771 918.999ZM759.55 1015.02L749.975 1012.14C743.531 1033.53 736.378 1047.28 729.624 1057.29C722.562 1067.76 716.409 1073.7 709.742 1081.89L717.498 1088.2L725.254 1094.51C730.382 1088.21 738.546 1079.83 746.205 1068.48C754.173 1056.66 762.15 1041.06 769.125 1017.91L759.55 1015.02ZM717.498 1088.2L709.742 1081.89C705.617 1086.96 701.371 1090.92 695.809 1095.72C690.305 1100.47 683.33 1106.18 674.669 1114.15L681.442 1121.51L688.214 1128.87C696.564 1121.18 702.942 1115.98 708.875 1110.86C714.751 1105.79 720.028 1100.93 725.254 1094.51L717.498 1088.2ZM681.442 1121.51L674.669 1114.15C660.669 1127.04 634.84 1148.95 620.173 1161.28L626.609 1168.94L633.044 1176.59C647.643 1164.32 673.825 1142.12 688.214 1128.87L681.442 1121.51ZM626.609 1168.94L620.173 1161.28C604.971 1174.06 585.021 1180.66 552.817 1190.41L555.713 1199.98L558.609 1209.55C589.89 1200.09 614.118 1192.5 633.044 1176.59L626.609 1168.94ZM555.713 1199.98L552.817 1190.41C536.162 1195.45 528.107 1195.44 512.47 1197.68L513.891 1207.58L515.313 1217.48C529.335 1215.47 540.031 1215.17 558.609 1209.55L555.713 1199.98ZM513.891 1207.58L512.47 1197.68C482.6 1201.97 454.039 1211.49 438.314 1217.15L441.702 1226.56L445.089 1235.97C460.44 1230.45 487.481 1221.48 515.313 1217.48L513.891 1207.58ZM441.702 1226.56L438.314 1217.15C430.14 1220.1 409.291 1227.64 374.471 1243.88L378.698 1252.94L382.925 1262.01C417.051 1246.09 437.31 1238.77 445.089 1235.97L441.702 1226.56ZM378.698 1252.94L374.471 1243.88C356.823 1252.11 342.841 1263.34 330.046 1274.94L336.766 1282.35L343.485 1289.76C355.7 1278.68 367.946 1268.99 382.925 1262.01L378.698 1252.94ZM336.766 1282.35L330.046 1274.94C304.58 1298.05 287.146 1322.76 277.25 1337.24L285.507 1342.89L293.763 1348.53C303.438 1334.37 319.807 1311.24 343.485 1289.76L336.766 1282.35ZM285.507 1342.89L277.25 1337.24C266.152 1353.49 262.386 1377.78 259.809 1402.4L269.754 1403.44L279.7 1404.48C282.356 1379.11 285.952 1359.96 293.763 1348.53L285.507 1342.89ZM269.754 1403.44L259.809 1402.4C257.744 1422.12 260.078 1437.39 261.845 1445.16L271.595 1442.94L281.346 1440.72C279.969 1434.67 277.905 1421.63 279.7 1404.48L269.754 1403.44ZM271.595 1442.94L261.845 1445.16C264.106 1455.09 271.481 1467.19 279.771 1478.54C288.349 1490.28 298.949 1502.6 309.091 1513.25L316.333 1506.35L323.575 1499.45C313.876 1489.27 303.87 1477.62 295.921 1466.74C287.685 1455.46 282.61 1446.27 281.346 1440.72L271.595 1442.94ZM316.333 1506.35L309.091 1513.25C313.396 1517.77 319.284 1521.91 327.563 1526.62C335.891 1531.36 347.231 1537.01 362.864 1544.39L367.132 1535.35L371.401 1526.3C355.831 1518.96 345.078 1513.58 337.46 1509.24C329.795 1504.88 325.884 1501.88 323.575 1499.45L316.333 1506.35ZM367.132 1535.35L362.864 1544.39C371.759 1548.59 385.795 1552.5 401.464 1556C417.384 1559.56 435.821 1562.88 454.025 1565.73C490.173 1571.37 526.458 1575.3 540.737 1575.3V1565.3V1555.3C528.169 1555.3 493.254 1551.61 457.112 1545.97C439.171 1543.16 421.19 1539.92 405.829 1536.48C390.217 1532.99 378.106 1529.47 371.401 1526.3L367.132 1535.35ZM540.737 1565.3V1575.3C562.983 1575.3 605.02 1586.99 641.438 1615.93C677.399 1644.5 707.498 1689.56 707.498 1756.5H717.498H727.498C727.498 1682.64 693.938 1632.1 653.88 1600.27C614.278 1568.81 567.935 1555.3 540.737 1555.3V1565.3ZM717.498 1756.5H707.498C707.498 1777.94 697.377 1807.78 680.892 1841.56C664.59 1874.97 642.757 1910.89 620.781 1944.05C598.829 1977.18 576.858 2007.37 560.365 2029.28C552.123 2040.23 545.257 2049.11 540.458 2055.24C538.058 2058.3 536.176 2060.68 534.897 2062.29C534.257 2063.09 533.768 2063.7 533.441 2064.11C533.278 2064.32 533.155 2064.47 533.073 2064.57C533.032 2064.62 533.002 2064.66 532.983 2064.68C532.973 2064.7 532.966 2064.7 532.961 2064.71C532.959 2064.71 532.957 2064.71 532.956 2064.72C532.956 2064.72 532.956 2064.72 540.737 2071C548.517 2077.28 548.519 2077.28 548.521 2077.28C548.522 2077.27 548.525 2077.27 548.528 2077.27C548.534 2077.26 548.543 2077.25 548.555 2077.23C548.578 2077.21 548.612 2077.16 548.656 2077.11C548.745 2077 548.875 2076.84 549.046 2076.62C549.388 2076.2 549.892 2075.57 550.547 2074.74C551.857 2073.1 553.772 2070.68 556.206 2067.57C561.073 2061.35 568.017 2052.37 576.346 2041.31C592.996 2019.18 615.215 1988.66 637.453 1955.1C659.667 1921.58 682.025 1884.85 698.866 1850.33C715.523 1816.19 727.498 1782.83 727.498 1756.5H717.498Z" fill="url(#paint1_radial_625_610)"/>
<defs>
<radialGradient id="paint0_radial_625_610" cx="0" cy="0" r="1" gradientUnits="userSpaceOnUse" gradientTransform="translate(390.5 467.499) rotate(90) scale(457.5 380.5)">
<stop offset="0.2" stop-color="#848382"/>
<stop offset="0.6" stop-color="#BAC8D9"/>
</radialGradient>
<radialGradient id="paint1_radial_625_610" cx="0" cy="0" r="1" gradientUnits="userSpaceOnUse" gradientTransform="translate(520 1310.18) rotate(90) scale(391.183 251)">
<stop offset="0.6" stop-color="#BAC8D9"/>
<stop offset="1" stop-color="#848382"/>
</radialGradient>
</defs>
</svg>
