<svg width="62" height="58" viewBox="0 0 62 58" fill="none" xmlns="http://www.w3.org/2000/svg">
<path d="M31 57.6662C14.1044 57.6662 0.356689 44.8055 0.356689 28.9999C0.356689 13.1942 14.1044 0.333496 31 0.333496C47.8957 0.333496 61.6434 13.1942 61.6434 28.9999C61.6434 44.8055 47.8957 57.6662 31 57.6662ZM11.9549 50.0014C17.2738 54.2275 24.0287 56.5541 31 56.5541C32.9735 56.5541 34.9493 56.3672 36.88 56.0002V13.3966H19.1236L11.9549 50.0014ZM39.4954 55.3863C45.1281 53.7938 50.2401 50.5641 53.9564 46.2446L39.4954 26.7511V55.3863ZM6.73597 13.3966C3.33828 18.0053 1.54552 23.3947 1.54552 28.9999C1.54552 36.1264 4.43201 42.8481 9.68665 47.9995L16.463 13.3966H6.73597ZM55.5875 44.1516C58.7736 39.6452 60.4522 34.4182 60.4522 28.9999C60.4522 21.9934 57.6394 15.3362 52.5227 10.2115L40.5963 23.9441L55.5875 44.1516ZM39.4954 21.3328L50.6491 8.48988C47.4368 5.7963 43.5969 3.77221 39.4954 2.61337V21.3328ZM36.88 10.9499V1.99947C34.9493 1.63247 32.9735 1.44563 31 1.44563C22.4381 1.44563 14.3778 4.89992 8.76412 10.9499H36.8824H36.88Z" fill="#F6F5EA"/>
<path d="M31 0.66728C47.7007 0.66728 61.2867 13.3767 61.2867 29C61.2867 44.6233 47.7007 57.3327 31 57.3327C14.2993 57.3327 0.7133 44.6233 0.7133 29C0.7133 13.3767 14.2993 0.66728 31 0.66728ZM7.99371 11.2837H37.2366V1.72826C35.2251 1.32566 33.1375 1.11213 31 1.11213C21.7485 1.11213 13.4671 5.07578 7.99371 11.2837ZM39.1387 22.2738L51.1388 8.45667C47.7602 5.55622 43.6682 3.37199 39.1387 2.16866V22.2738ZM55.5922 44.7434C58.8829 40.2592 60.8112 34.8365 60.8112 29C60.8112 21.5198 57.6465 14.7202 52.5036 9.7067L40.1516 23.9287L55.5922 44.7434ZM31 56.8879C33.1399 56.8879 35.2251 56.6743 37.2366 56.2717V13.0631H18.8264L11.5673 50.1305C16.7887 54.3389 23.5841 56.8879 31 56.8879ZM9.91249 48.6937L16.8909 13.0631H6.55047C3.17418 17.5828 1.18883 23.079 1.18883 29C1.18883 36.6804 4.5247 43.6468 9.91249 48.6937ZM39.1387 55.8313C45.247 54.2076 50.5634 50.8023 54.401 46.2581L39.1387 25.6858V55.8313ZM31 0C13.907 0 0 13.0097 0 29C0 44.9903 13.907 58 31 58C48.093 58 62 44.9903 62 29C62 13.0097 48.093 0 31 0ZM9.55821 10.6164C15.0768 4.98236 22.8066 1.77941 31 1.77941C32.8522 1.77941 34.7068 1.94623 36.5233 2.2732V10.6164H9.55821ZM39.852 20.3943V3.06726C43.623 4.19942 47.1562 6.07225 50.1568 8.53007L39.852 20.3943ZM41.0433 23.9598L52.5416 10.721C57.4206 15.7456 60.0979 22.2049 60.0979 29C60.0979 34.187 58.5381 39.196 55.5779 43.5534L41.0433 23.9598ZM19.4208 13.7304H36.5233V55.7268C34.7068 56.0538 32.8522 56.2206 31 56.2206C24.1809 56.2206 17.5709 53.9696 12.3425 49.8703L19.4208 13.7304ZM6.92614 13.7304H16.0374L9.46549 47.2857C4.57938 42.2633 1.90451 35.8174 1.90451 29C1.90451 23.5216 3.64021 18.2501 6.92852 13.7304H6.92614ZM39.852 54.9327V27.8167L53.5117 46.227C49.9571 50.2796 45.1519 53.3402 39.852 54.9305V54.9327Z" fill="#F6F5EA"/>
<path d="M31 57.6662C14.1044 57.6662 0.356689 44.8055 0.356689 28.9999C0.356689 13.1942 14.1044 0.333496 31 0.333496C47.8957 0.333496 61.6434 13.1942 61.6434 28.9999C61.6434 44.8055 47.8957 57.6662 31 57.6662ZM11.9549 50.0014C17.2738 54.2275 24.0287 56.5541 31 56.5541C32.9735 56.5541 34.9493 56.3672 36.88 56.0002V13.3966H19.1236L11.9549 50.0014ZM39.4954 55.3863C45.1281 53.7938 50.2401 50.5641 53.9564 46.2446L39.4954 26.7511V55.3863ZM6.73597 13.3966C3.33828 18.0053 1.54552 23.3947 1.54552 28.9999C1.54552 36.1264 4.43201 42.8481 9.68665 47.9995L16.463 13.3966H6.73597ZM55.5875 44.1516C58.7736 39.6452 60.4522 34.4182 60.4522 28.9999C60.4522 21.9934 57.6394 15.3362 52.5227 10.2115L40.5963 23.9441L55.5875 44.1516ZM39.4954 21.3328L50.6491 8.48988C47.4368 5.7963 43.5969 3.77221 39.4954 2.61337V21.3328ZM36.88 10.9499V1.99947C34.9493 1.63247 32.9735 1.44563 31 1.44563C22.4381 1.44563 14.3778 4.89992 8.76412 10.9499H36.8824H36.88Z" fill="#F6F5EA"/>
<path d="M31 0.66728C47.7007 0.66728 61.2867 13.3767 61.2867 29C61.2867 44.6233 47.7007 57.3327 31 57.3327C14.2993 57.3327 0.7133 44.6233 0.7133 29C0.7133 13.3767 14.2993 0.66728 31 0.66728ZM7.99371 11.2837H37.2366V1.72826C35.2251 1.32566 33.1375 1.11213 31 1.11213C21.7485 1.11213 13.4671 5.07578 7.99371 11.2837ZM39.1387 22.2738L51.1388 8.45667C47.7602 5.55622 43.6682 3.37199 39.1387 2.16866V22.2738ZM55.5922 44.7434C58.8829 40.2592 60.8112 34.8365 60.8112 29C60.8112 21.5198 57.6465 14.7202 52.5036 9.7067L40.1516 23.9287L55.5922 44.7434ZM31 56.8879C33.1399 56.8879 35.2251 56.6743 37.2366 56.2717V13.0631H18.8264L11.5673 50.1305C16.7887 54.3389 23.5841 56.8879 31 56.8879ZM9.91249 48.6937L16.8909 13.0631H6.55047C3.17418 17.5828 1.18883 23.079 1.18883 29C1.18883 36.6804 4.5247 43.6468 9.91249 48.6937ZM39.1387 55.8313C45.247 54.2076 50.5634 50.8023 54.401 46.2581L39.1387 25.6858V55.8313ZM31 0C13.907 0 0 13.0097 0 29C0 44.9903 13.907 58 31 58C48.093 58 62 44.9903 62 29C62 13.0097 48.093 0 31 0ZM9.55821 10.6164C15.0768 4.98236 22.8066 1.77941 31 1.77941C32.8522 1.77941 34.7068 1.94623 36.5233 2.2732V10.6164H9.55821ZM39.852 20.3943V3.06726C43.623 4.19942 47.1562 6.07225 50.1568 8.53007L39.852 20.3943ZM41.0433 23.9598L52.5416 10.721C57.4206 15.7456 60.0979 22.2049 60.0979 29C60.0979 34.187 58.5381 39.196 55.5779 43.5534L41.0433 23.9598ZM19.4208 13.7304H36.5233V55.7268C34.7068 56.0538 32.8522 56.2206 31 56.2206C24.1809 56.2206 17.5709 53.9696 12.3425 49.8703L19.4208 13.7304ZM6.92614 13.7304H16.0374L9.46549 47.2857C4.57938 42.2633 1.90451 35.8174 1.90451 29C1.90451 23.5216 3.64021 18.2501 6.92852 13.7304H6.92614ZM39.852 54.9327V27.8167L53.5117 46.227C49.9571 50.2796 45.1519 53.3402 39.852 54.9305V54.9327Z" fill="#F6F5EA"/>
<path d="M55.2236 22.0117H53.3215C53.1245 22.0117 52.9648 22.1611 52.9648 22.3454V36.5762C52.9648 36.7605 53.1245 36.9099 53.3215 36.9099H55.2236C55.4206 36.9099 55.5803 36.7605 55.5803 36.5762V22.3454C55.5803 22.1611 55.4206 22.0117 55.2236 22.0117Z" fill="#F6F5EA"/>
<path d="M55.2241 22.345V36.5759H53.3219V22.345H55.2241ZM55.2241 21.6777H53.3219C52.9272 21.6777 52.6086 21.9758 52.6086 22.345V36.5759C52.6086 36.9451 52.9272 37.2432 53.3219 37.2432H55.2241C55.6188 37.2432 55.9374 36.9451 55.9374 36.5759V22.345C55.9374 21.9758 55.6188 21.6777 55.2241 21.6777Z" fill="#F6F5EA"/>
<path d="M27.6 21.4378C27.4597 21.4378 27.3337 21.3622 27.2742 21.2421C27.2148 21.122 27.2386 20.9819 27.3313 20.884C29.6305 18.4284 30.1678 16.4288 30.1892 16.3465C30.2273 16.1975 30.3723 16.0907 30.5364 16.0907H33.361C33.4704 16.0907 33.5727 16.1374 33.6416 16.2175C33.7106 16.2976 33.7343 16.4021 33.7082 16.5022C33.7011 16.5267 32.857 19.1802 30.3509 21.3489C30.2843 21.4067 30.1988 21.4378 30.1084 21.4378H27.6Z" fill="#F6F5EA"/>
<path d="M33.3615 16.4219C33.3306 16.5398 32.4699 19.0599 30.1089 21.1017H27.6004C29.9924 18.5483 30.5321 16.4464 30.5368 16.4219H33.3615ZM33.3615 15.7546H30.5368C30.2087 15.7546 29.921 15.9659 29.8426 16.264C29.8378 16.284 29.3052 18.2658 27.0631 20.6613C26.8776 20.8593 26.8348 21.1373 26.9489 21.3776C27.0654 21.6155 27.3175 21.769 27.598 21.769H30.1065C30.2872 21.769 30.4584 21.7067 30.5915 21.5911C33.1713 19.3601 34.0463 16.6043 34.0534 16.5776C34.1057 16.3796 34.0558 16.1683 33.9203 16.0082C33.7847 15.848 33.5779 15.7524 33.3591 15.7524L33.3615 15.7546Z" fill="#F6F5EA"/>
<path d="M25.3977 43.42C23.2507 43.42 21.1536 42.4947 19.6437 40.8799C18.0864 39.2162 17.228 36.9163 17.228 34.4051C17.228 28.2372 21.6291 23.5862 27.4639 23.5862C30.1839 23.5862 32.3809 24.6583 33.8194 26.6891C34.9797 28.3284 35.6193 30.5526 35.6193 32.9504C35.6193 38.7224 31.0328 43.42 25.3977 43.42ZM27.4639 26.0352C23.0486 26.0352 19.8435 29.5562 19.8435 34.4073C19.8435 37.6347 21.9215 40.9756 25.3977 40.9756C29.5919 40.9756 33.0038 37.3767 33.0038 32.9526C33.0038 29.6073 31.5487 26.0352 27.4639 26.0352Z" fill="#F6F5EA"/>
<path d="M27.4638 23.9197C33.2202 23.9197 35.2626 28.7842 35.2626 32.9502C35.2626 38.5398 30.8377 43.0862 25.3976 43.0862C23.3529 43.0862 21.3532 42.2032 19.9124 40.6618C18.4121 39.0581 17.587 36.836 17.587 34.4071C17.587 28.4283 21.8335 23.9219 27.4662 23.9219M25.3976 41.3068C29.7892 41.3068 33.3604 37.5589 33.3604 32.9502C33.3604 29.4448 31.8126 25.6991 27.4638 25.6991C22.8417 25.6991 19.4868 29.3603 19.4868 34.4049C19.4868 37.7969 21.698 41.3068 25.3976 41.3068ZM27.4638 23.2524C21.4246 23.2524 16.8713 28.048 16.8713 34.4049C16.8713 36.9962 17.7606 39.3739 19.375 41.1C20.9514 42.786 23.1484 43.7535 25.3976 43.7535C31.2301 43.7535 35.9759 38.9068 35.9759 32.9502C35.9759 30.4858 35.3149 28.197 34.1165 26.5043C32.6091 24.3779 30.3099 23.2524 27.4638 23.2524ZM25.3976 40.6395C22.145 40.6395 20.2001 37.47 20.2001 34.4049C20.2001 29.7473 23.2554 26.3664 27.4638 26.3664C29.2019 26.3664 30.5405 27.0404 31.4393 28.3683C32.2168 29.5182 32.6471 31.1464 32.6471 32.9525C32.6471 37.1919 29.3945 40.6418 25.3976 40.6418V40.6395Z" fill="#F6F5EA"/>
<path d="M27.6 21.4378C27.4597 21.4378 27.3337 21.3622 27.2742 21.2421C27.2148 21.122 27.2386 20.9819 27.3313 20.884C29.6305 18.4284 30.1678 16.4288 30.1892 16.3465C30.2273 16.1975 30.3723 16.0907 30.5364 16.0907H33.361C33.4704 16.0907 33.5727 16.1374 33.6416 16.2175C33.7106 16.2976 33.7343 16.4021 33.7082 16.5022C33.7011 16.5267 32.857 19.1802 30.3509 21.3489C30.2843 21.4067 30.1988 21.4378 30.1084 21.4378H27.6Z" fill="#F6F5EA"/>
<path d="M33.3615 16.4219C33.3306 16.5398 32.4699 19.0599 30.1089 21.1017H27.6004C29.9924 18.5483 30.5321 16.4464 30.5368 16.4219H33.3615ZM33.3615 15.7546H30.5368C30.2087 15.7546 29.921 15.9659 29.8426 16.264C29.8378 16.284 29.3052 18.2658 27.0631 20.6613C26.8776 20.8593 26.8348 21.1373 26.9489 21.3776C27.0654 21.6155 27.3175 21.769 27.598 21.769H30.1065C30.2872 21.769 30.4584 21.7067 30.5915 21.5911C33.1713 19.3601 34.0463 16.6043 34.0534 16.5776C34.1057 16.3796 34.0558 16.1683 33.9203 16.0082C33.7847 15.848 33.5779 15.7524 33.3591 15.7524L33.3615 15.7546Z" fill="#F6F5EA"/>
<path d="M55.2236 22.0117H53.3215C53.1245 22.0117 52.9648 22.1611 52.9648 22.3454V36.5762C52.9648 36.7605 53.1245 36.9099 53.3215 36.9099H55.2236C55.4206 36.9099 55.5803 36.7605 55.5803 36.5762V22.3454C55.5803 22.1611 55.4206 22.0117 55.2236 22.0117Z" fill="#F6F5EA"/>
<path d="M55.2241 22.345V36.5759H53.3219V22.345H55.2241ZM55.2241 21.6777H53.3219C52.9272 21.6777 52.6086 21.9758 52.6086 22.345V36.5759C52.6086 36.9451 52.9272 37.2432 53.3219 37.2432H55.2241C55.6188 37.2432 55.9374 36.9451 55.9374 36.5759V22.345C55.9374 21.9758 55.6188 21.6777 55.2241 21.6777Z" fill="#F6F5EA"/>
<path d="M25.3977 43.42C23.2507 43.42 21.1536 42.4947 19.6437 40.8799C18.0864 39.2162 17.228 36.9163 17.228 34.4051C17.228 28.2372 21.6291 23.5862 27.4639 23.5862C30.1839 23.5862 32.3809 24.6583 33.8194 26.6891C34.9797 28.3284 35.6193 30.5526 35.6193 32.9504C35.6193 38.7224 31.0328 43.42 25.3977 43.42ZM27.4639 26.0352C23.0486 26.0352 19.8435 29.5562 19.8435 34.4073C19.8435 37.6347 21.9215 40.9756 25.3977 40.9756C29.5919 40.9756 33.0038 37.3767 33.0038 32.9526C33.0038 29.6073 31.5487 26.0352 27.4639 26.0352Z" fill="#F6F5EA"/>
<path d="M27.4638 23.9197C33.2202 23.9197 35.2626 28.7842 35.2626 32.9502C35.2626 38.5398 30.8377 43.0862 25.3976 43.0862C23.3529 43.0862 21.3532 42.2032 19.9124 40.6618C18.4121 39.0581 17.587 36.836 17.587 34.4071C17.587 28.4283 21.8335 23.9219 27.4662 23.9219M25.3976 41.3068C29.7892 41.3068 33.3604 37.5589 33.3604 32.9502C33.3604 29.4448 31.8126 25.6991 27.4638 25.6991C22.8417 25.6991 19.4868 29.3603 19.4868 34.4049C19.4868 37.7969 21.698 41.3068 25.3976 41.3068ZM27.4638 23.2524C21.4246 23.2524 16.8713 28.048 16.8713 34.4049C16.8713 36.9962 17.7606 39.3739 19.375 41.1C20.9514 42.786 23.1484 43.7535 25.3976 43.7535C31.2301 43.7535 35.9759 38.9068 35.9759 32.9502C35.9759 30.4858 35.3149 28.197 34.1165 26.5043C32.6091 24.3779 30.3099 23.2524 27.4638 23.2524ZM25.3976 40.6395C22.145 40.6395 20.2001 37.47 20.2001 34.4049C20.2001 29.7473 23.2554 26.3664 27.4638 26.3664C29.2019 26.3664 30.5405 27.0404 31.4393 28.3683C32.2168 29.5182 32.6471 31.1464 32.6471 32.9525C32.6471 37.1919 29.3945 40.6418 25.3976 40.6418V40.6395Z" fill="#F6F5EA"/>
</svg>
