<svg width="172" height="157" viewBox="0 0 172 157" fill="none" xmlns="http://www.w3.org/2000/svg">
<path d="M85.6056 156.097C38.9484 156.097 0.984375 121.285 0.984375 78.5004C0.984375 35.7162 38.9484 0.903564 85.6056 0.903564C132.263 0.903564 170.227 35.7162 170.227 78.5004C170.227 121.285 132.263 156.097 85.6056 156.097ZM33.0128 135.349C47.7007 146.789 66.3544 153.087 85.6056 153.087C91.0553 153.087 96.5116 152.581 101.843 151.588V36.2641H52.809L33.0128 135.349ZM109.066 149.926C124.62 145.615 138.737 136.873 148.999 125.18L109.066 72.4133V149.926ZM18.6007 36.2641C9.21801 48.7393 4.26732 63.3279 4.26732 78.5004C4.26732 97.7913 12.2383 115.986 26.7489 129.931L45.4617 36.2641H18.6007ZM153.504 119.515C162.302 107.316 166.937 93.1672 166.937 78.5004C166.937 59.5347 159.17 41.5143 145.04 27.6422L112.106 64.815L153.504 119.515ZM109.066 57.7465L139.866 22.9821C130.996 15.6908 120.392 10.2118 109.066 7.07495V57.7465ZM101.843 29.6411V5.41319C96.5116 4.41975 91.0553 3.91399 85.6056 3.91399C61.9618 3.91399 39.7034 13.2644 24.2014 29.6411H101.85H101.843Z" fill="#8C8C5D"/>
<path d="M85.6061 1.80626C131.725 1.80626 169.242 36.2095 169.242 78.5C169.242 120.791 131.725 155.194 85.6061 155.194C39.4873 155.194 1.96977 120.791 1.96977 78.5C1.96977 36.2095 39.4873 1.80626 85.6061 1.80626ZM22.0745 30.5438H102.828V4.67821C97.2737 3.58843 91.5088 3.01043 85.6061 3.01043C60.0582 3.01043 37.1892 13.7396 22.0745 30.5438ZM108.081 60.2929L141.219 22.8913C131.889 15.0401 120.589 9.12763 108.081 5.87034V60.2929ZM153.517 121.116C162.604 108.978 167.929 94.2987 167.929 78.5C167.929 58.2518 159.19 39.8461 144.988 26.275L110.878 64.7724L153.517 121.116ZM85.6061 153.99C91.5154 153.99 97.2737 153.412 102.828 152.322V35.3605H51.9887L31.9431 135.698C46.3618 147.09 65.1271 153.99 85.6061 153.99ZM27.3732 131.809L46.6441 35.3605H18.089C8.76547 47.5949 3.28295 62.4725 3.28295 78.5C3.28295 99.29 12.4949 118.147 27.3732 131.809ZM108.081 151.13C124.949 146.734 139.63 137.516 150.228 125.216L108.081 69.5289V151.13ZM85.6061 0C38.4039 0 0 35.216 0 78.5C0 121.784 38.4039 157 85.6061 157C132.808 157 171.212 121.784 171.212 78.5C171.212 35.216 132.808 0 85.6061 0ZM26.3949 28.7376C41.6343 13.4867 62.98 4.81669 85.6061 4.81669C90.7209 4.81669 95.8423 5.26825 100.859 6.15332V28.7376H26.3949ZM110.051 55.2053V8.30277C120.464 11.3674 130.221 16.437 138.507 23.09L110.051 55.2053ZM113.34 64.8567L145.093 29.0206C158.566 42.6217 165.959 60.1063 165.959 78.5C165.959 92.5406 161.652 106.1 153.478 117.894L113.34 64.8567ZM53.6302 37.1668H100.859V150.847C95.8423 151.732 90.7209 152.183 85.6061 152.183C66.7751 152.183 48.5219 146.09 34.0835 134.994L53.6302 37.1668ZM19.1264 37.1668H44.2869L26.1388 127.997C12.6459 114.402 5.25928 96.9539 5.25928 78.5C5.25928 63.6706 10.0524 49.4012 19.133 37.1668H19.1264ZM110.051 148.697V75.2969L147.772 125.132C137.956 136.102 124.686 144.386 110.051 148.691V148.697Z" fill="#8C8C5D"/>
<path d="M69.5458 114.591C63.6168 114.591 57.8256 112.087 53.6563 107.716C49.3556 103.212 46.9854 96.9865 46.9854 90.1889C46.9854 73.4931 59.1388 60.9034 75.2515 60.9034C82.7629 60.9034 88.8298 63.8055 92.8022 69.3025C96.0063 73.7399 97.7725 79.7608 97.7725 86.2513C97.7725 101.875 85.1069 114.591 69.5458 114.591ZM75.2515 67.5324C63.0587 67.5324 54.2078 77.0634 54.2078 90.1949C54.2078 98.9312 59.9464 107.975 69.5458 107.975C81.128 107.975 90.55 98.2328 90.55 86.2573C90.55 77.2019 86.5317 67.5324 75.2515 67.5324Z" fill="#8C8C5D"/>
<path d="M75.2511 61.8063C91.1471 61.8063 96.7872 74.9739 96.7872 86.251C96.7872 101.381 84.5681 113.688 69.5453 113.688C63.8986 113.688 58.3767 111.298 54.3978 107.125C50.2547 102.784 47.9763 96.7694 47.9763 90.1946C47.9763 74.0105 59.703 61.8123 75.2576 61.8123M69.5453 108.871C81.6725 108.871 91.5345 98.7262 91.5345 86.251C91.5345 76.7621 87.2601 66.6229 75.2511 66.6229C62.487 66.6229 53.2225 76.5333 53.2225 90.1886C53.2225 99.3704 59.3288 108.871 69.5453 108.871ZM75.2511 60C58.5737 60 46 72.981 46 90.1886C46 97.2029 48.4556 103.639 52.9139 108.311C57.2671 112.875 63.334 115.494 69.5453 115.494C85.6514 115.494 98.757 102.375 98.757 86.251C98.757 79.5798 96.9316 73.3844 93.6224 68.8025C89.4597 63.0466 83.1104 60 75.2511 60ZM69.5453 107.065C60.5632 107.065 55.1923 98.4853 55.1923 90.1886C55.1923 77.5809 63.6294 68.4292 75.2511 68.4292C80.0507 68.4292 83.7473 70.2535 86.2292 73.848C88.3763 76.9608 89.5647 81.368 89.5647 86.257C89.5647 97.7327 80.5826 107.071 69.5453 107.071V107.065Z" fill="#8C8C5D"/>
<path d="M78.9718 58.3893C78.5844 58.3893 78.2364 58.1846 78.0722 57.8595C77.9081 57.5344 77.9738 57.155 78.2298 56.8901C84.579 50.2431 86.0629 44.8303 86.122 44.6076C86.2271 44.2042 86.6276 43.9152 87.0806 43.9152H94.8809C95.183 43.9152 95.4653 44.0416 95.6557 44.2584C95.8461 44.4751 95.9118 44.7581 95.8395 45.029C95.8199 45.0953 93.489 52.2781 86.5685 58.1485C86.3847 58.305 86.1483 58.3893 85.8988 58.3893H78.9718Z" fill="#8C8C5D"/>
<path d="M94.8821 44.8123C94.7967 45.1314 92.4199 51.953 85.8999 57.4802H78.9729C85.5782 50.5682 87.0686 44.8785 87.0818 44.8123H94.8821ZM94.8821 43.006H87.0818C86.1757 43.006 85.3812 43.578 85.1645 44.3848C85.1514 44.439 83.6807 49.8036 77.489 56.288C76.9769 56.8239 76.8587 57.5765 77.1738 58.2268C77.4956 58.871 78.1916 59.2864 78.9663 59.2864H85.8934C86.3924 59.2864 86.8651 59.1178 87.2328 58.8048C94.3568 52.7658 96.773 45.306 96.7927 45.2337C96.9372 44.6979 96.7993 44.1259 96.425 43.6924C96.0508 43.2589 95.4796 43 94.8755 43L94.8821 43.006Z" fill="#8C8C5D"/>
<path d="M153.222 61.9044H147.969C147.425 61.9044 146.984 62.3088 146.984 62.8075V101.329C146.984 101.828 147.425 102.232 147.969 102.232H153.222C153.766 102.232 154.207 101.828 154.207 101.329V62.8075C154.207 62.3088 153.766 61.9044 153.222 61.9044Z" fill="#8C8C5D"/>
<path d="M153.222 62.8063V101.328H147.97V62.8063H153.222ZM153.222 61H147.97C146.88 61 146 61.8068 146 62.8063V101.328C146 102.327 146.88 103.134 147.97 103.134H153.222C154.312 103.134 155.192 102.327 155.192 101.328V62.8063C155.192 61.8068 154.312 61 153.222 61Z" fill="#8C8C5D"/>
</svg>
